/* XPM */
static char * ChatGPT Image May 31, 2025, 02_06_31 PM copy_xpm[] = {
"32 32 24 1",
" 	c #283328",
".	c #283329",
"+	c #293329",
"@	c #DF6225",
"#	c #DF6224",
"$	c #E06224",
"%	c #963629",
"&	c #253328",
"*	c #96362A",
"=	c #973629",
"-	c #983629",
";	c #99362A",
">	c #283228",
",	c #95362A",
"'	c #F5BD0A",
")	c #F5BD09",
"!	c #DF6124",
"~	c #F5BE09",
"{	c #28332A",
"]	c #F4AE07",
"^	c #F6BE09",
"/	c #F6BD0A",
"(	c #F3AD07",
"_	c #273328",
"   .         .    .      .  ..  ",
"            .        .          ",
"                   .            ",
"       .  .                     ",
"                      .         ",
"     .++.+++.+....   +          ",
"    .@##@#########. .     . .   ",
"    .#$########$$#.            .",
"     @$%& ..++..@#.             ",
"     ##*=-.    .@#.  .          ",
"     @#%**-;;+ .@#.             ",
">    @#******. .@#.   ...       ",
"     ##,,*,,*. +@#    +')+      ",
"     ##***,**.  #! .  .)~){     ",
"     ##****,*+ .#!+. .++~~'     ",
"    .##****]*   @#.)))~^~~~/+   ",
"     ##***,(*+ .@#+)))~~~~~~'.  ",
"     ##******+..##+))~~~~~~)  >.",
"   + @#%*****+ +##.+ ..+~~).    ",
"     @@**,,,*+  @#+.. .)~){+   .",
"     @#***,*,+  ##+   .')+    _ ",
"     ##%*****.  #!+    ..  >    ",
" >   @#******.  ##+             ",
"     ##%****+   @# .     .      ",
"    .##**-+.    ##.      . .    ",
"     @@%..      ##.             ",
"  +   +          .              ",
"  .                             ",
"      .             +          +",
"  .             >               ",
"   . .                .    .    ",
"                 .       .      "};
