/* XPM */
static char * ChatGPT Image May 31, 2025, 01_25_20 PM_xpm[] = {
"32 32 546 2",
"  	c #7F7860",
". 	c #7F7861",
"+ 	c #817B63",
"@ 	c #817A62",
"# 	c #77705A",
"$ 	c #635C4B",
"% 	c #5C5342",
"& 	c #594E3C",
"* 	c #4B4437",
"= 	c #79725C",
"- 	c #8C856C",
"; 	c #878068",
"> 	c #88816A",
", 	c #847D66",
"' 	c #867F68",
") 	c #857E68",
"! 	c #857F68",
"~ 	c #878069",
"{ 	c #837D65",
"] 	c #5F5848",
"^ 	c #5F5948",
"/ 	c #6E6754",
"( 	c #716A57",
"_ 	c #6E6855",
": 	c #6B6552",
"< 	c #716B56",
"[ 	c #6B6451",
"} 	c #504A3D",
"| 	c #4F4A3C",
"1 	c #80785F",
"2 	c #7E775F",
"3 	c #7C755E",
"4 	c #7F7961",
"5 	c #7F7862",
"6 	c #807962",
"7 	c #7B745E",
"8 	c #878067",
"9 	c #847D65",
"0 	c #736C58",
"a 	c #514A3D",
"b 	c #857E66",
"c 	c #8A846B",
"d 	c #857E67",
"e 	c #868069",
"f 	c #878169",
"g 	c #89826B",
"h 	c #8D876E",
"i 	c #8D866D",
"j 	c #5E5848",
"k 	c #888168",
"l 	c #837C65",
"m 	c #827C64",
"n 	c #857F66",
"o 	c #847E65",
"p 	c #7E765F",
"q 	c #554F41",
"r 	c #847D63",
"s 	c #857F65",
"t 	c #837D64",
"u 	c #827B64",
"v 	c #817A64",
"w 	c #8A836B",
"x 	c #8A836A",
"y 	c #8E876D",
"z 	c #888269",
"A 	c #87816A",
"B 	c #7F7963",
"C 	c #8B846C",
"D 	c #928C71",
"E 	c #595345",
"F 	c #847D67",
"G 	c #847E67",
"H 	c #837D66",
"I 	c #817A61",
"J 	c #544F40",
"K 	c #655F4E",
"L 	c #8D856A",
"M 	c #898268",
"N 	c #8C866D",
"O 	c #716B58",
"P 	c #494438",
"Q 	c #4E493C",
"R 	c #736C59",
"S 	c #8B836A",
"T 	c #8C856D",
"U 	c #8A846C",
"V 	c #5B5648",
"W 	c #454237",
"X 	c #827D66",
"Y 	c #867F66",
"Z 	c #5A5444",
"` 	c #464134",
" .	c #534E41",
"..	c #6C6553",
"+.	c #817A63",
"@.	c #8E876E",
"#.	c #89836B",
"$.	c #595447",
"%.	c #4B473B",
"&.	c #665E4C",
"*.	c #6A624E",
"=.	c #4C483C",
"-.	c #504C41",
";.	c #756E5A",
">.	c #8C866C",
",.	c #8F886E",
"'.	c #817B64",
").	c #6C6754",
"!.	c #585446",
"~.	c #464236",
"{.	c #474236",
"].	c #534F42",
"^.	c #706B58",
"/.	c #8D876D",
"(.	c #8C856B",
"_.	c #706A56",
":.	c #51493A",
"<.	c #584D3A",
"[.	c #5B5340",
"}.	c #4F4B3F",
"|.	c #6C6654",
"1.	c #736D59",
"2.	c #756F5B",
"3.	c #4F4B40",
"4.	c #615B4B",
"5.	c #827B65",
"6.	c #575244",
"7.	c #5A5548",
"8.	c #635D4E",
"9.	c #625D4C",
"0.	c #464338",
"a.	c #665F4D",
"b.	c #8B8268",
"c.	c #877D65",
"d.	c #585345",
"e.	c #7D7761",
"f.	c #5A5547",
"g.	c #625A48",
"h.	c #847A60",
"i.	c #867B60",
"j.	c #81755B",
"k.	c #776F59",
"l.	c #5B5647",
"m.	c #4A463B",
"n.	c #4D493F",
"o.	c #474438",
"p.	c #6D6753",
"q.	c #86806A",
"r.	c #867F6A",
"s.	c #87806A",
"t.	c #857F69",
"u.	c #8A826A",
"v.	c #6D6653",
"w.	c #494539",
"x.	c #4F493B",
"y.	c #877F68",
"z.	c #565143",
"A.	c #575245",
"B.	c #4E4B3E",
"C.	c #504B3D",
"D.	c #6E6854",
"E.	c #807960",
"F.	c #857D63",
"G.	c #807A61",
"H.	c #7B745C",
"I.	c #868068",
"J.	c #7E7862",
"K.	c #77715C",
"L.	c #595444",
"M.	c #555042",
"N.	c #807A64",
"O.	c #88826C",
"P.	c #89836C",
"Q.	c #8D856C",
"R.	c #5C5647",
"S.	c #726A56",
"T.	c #827C66",
"U.	c #7C7661",
"V.	c #88826A",
"W.	c #8B856C",
"X.	c #615A4A",
"Y.	c #554C3C",
"Z.	c #817961",
"`.	c #837B63",
" +	c #79725B",
".+	c #7E7860",
"++	c #7B745D",
"@+	c #766F5A",
"#+	c #6A6451",
"$+	c #938B70",
"%+	c #857D66",
"&+	c #544F41",
"*+	c #847E66",
"=+	c #7F7964",
"-+	c #8A8369",
";+	c #5D5646",
">+	c #8D8569",
",+	c #5F5A4A",
"'+	c #847E68",
")+	c #837D67",
"!+	c #90896F",
"~+	c #6A6453",
"{+	c #464237",
"]+	c #7E7761",
"^+	c #8E886E",
"/+	c #88826B",
"(+	c #908A70",
"_+	c #918A70",
":+	c #7B755E",
"<+	c #6F6955",
"[+	c #8E886D",
"}+	c #868067",
"|+	c #7E7861",
"1+	c #4D493E",
"2+	c #474133",
"3+	c #524E42",
"4+	c #666150",
"5+	c #8C866E",
"6+	c #908970",
"7+	c #7B745F",
"8+	c #696252",
"9+	c #4D4434",
"0+	c #514C3F",
"a+	c #77705C",
"b+	c #8E886F",
"c+	c #938C72",
"d+	c #7F7962",
"e+	c #5D594B",
"f+	c #454033",
"g+	c #4A463A",
"h+	c #676150",
"i+	c #807961",
"j+	c #898369",
"k+	c #49463B",
"l+	c #5E5746",
"m+	c #756B54",
"n+	c #68604D",
"o+	c #736D5A",
"p+	c #5F5A4C",
"q+	c #4D483B",
"r+	c #6D6551",
"s+	c #80775F",
"t+	c #6E6753",
"u+	c #534F41",
"v+	c #7E7760",
"w+	c #8F876D",
"x+	c #968F74",
"y+	c #595548",
"z+	c #484337",
"A+	c #635A47",
"B+	c #685F4C",
"C+	c #625C4D",
"D+	c #756F5A",
"E+	c #7C7660",
"F+	c #555144",
"G+	c #474338",
"H+	c #6A6350",
"I+	c #898168",
"J+	c #585243",
"K+	c #4D493D",
"L+	c #5C584A",
"M+	c #544E40",
"N+	c #504C3F",
"O+	c #696352",
"P+	c #555145",
"Q+	c #4B4639",
"R+	c #7C735C",
"S+	c #8C8368",
"T+	c #877F66",
"U+	c #837B64",
"V+	c #474337",
"W+	c #544F43",
"X+	c #585040",
"Y+	c #877F65",
"Z+	c #888068",
"`+	c #8A836C",
" @	c #79725D",
".@	c #514A3A",
"+@	c #655F4C",
"@@	c #807A63",
"#@	c #635D4C",
"$@	c #4F4B3E",
"%@	c #4F4A3D",
"&@	c #5C5545",
"*@	c #857D64",
"=@	c #827C65",
"-@	c #857F67",
";@	c #7E755D",
">@	c #605847",
",@	c #504533",
"'@	c #776F5A",
")@	c #7A7460",
"!@	c #817A65",
"~@	c #827C67",
"{@	c #6A6250",
"]@	c #867E66",
"^@	c #8F886F",
"/@	c #867F69",
"(@	c #7A745F",
"_@	c #8F876E",
":@	c #5A4F3D",
"<@	c #8E866C",
"[@	c #817B65",
"}@	c #8B8166",
"|@	c #8A7F64",
"1@	c #5E5543",
"2@	c #7A735E",
"3@	c #8D866C",
"4@	c #908A71",
"5@	c #89826A",
"6@	c #888169",
"7@	c #8F896F",
"8@	c #5F5949",
"9@	c #68604E",
"0@	c #8A8268",
"a@	c #5D5747",
"b@	c #565043",
"c@	c #736C57",
"d@	c #645D4C",
"e@	c #716A55",
"f@	c #807963",
"g@	c #6B6655",
"h@	c #6D6754",
"i@	c #938C71",
"j@	c #8B846B",
"k@	c #878066",
"l@	c #4B4435",
"m@	c #5F594B",
"n@	c #948D71",
"o@	c #5E594A",
"p@	c #474235",
"q@	c #4B4638",
"r@	c #6F6754",
"s@	c #948D72",
"t@	c #948E73",
"u@	c #6D6654",
"v@	c #4D4A3E",
"w@	c #474032",
"x@	c #6F6855",
"y@	c #89836A",
"z@	c #494336",
"A@	c #6B6450",
"B@	c #5E5847",
"C@	c #514D41",
"D@	c #615B4C",
"E@	c #706855",
"F@	c #625C4C",
"G@	c #4E4A3E",
"H@	c #5A5343",
"I@	c #756B55",
"J@	c #6F6651",
"K@	c #524B3C",
"L@	c #4E4A3D",
"M@	c #686150",
"N@	c #706955",
"O@	c #776F5B",
"P@	c #6C6655",
"Q@	c #6A614D",
"R@	c #726853",
"S@	c #5C5443",
"T@	c #514D40",
"U@	c #655E4E",
"V@	c #7D765F",
"W@	c #77705B",
"X@	c #5B5649",
"Y@	c #514C3E",
"Z@	c #796D55",
"`@	c #898269",
" #	c #4E483B",
".#	c #4D473A",
"+#	c #7B735D",
"@#	c #756D59",
"##	c #625B4A",
"$#	c #8A8269",
"%#	c #888069",
"&#	c #4C473A",
"*#	c #514C40",
"=#	c #4D483C",
"-#	c #615A48",
";#	c #867D63",
">#	c #5A5140",
",#	c #564D3B",
"'#	c #766E58",
")#	c #8C846A",
"!#	c #6D6652",
"~#	c #4A4438",
"{#	c #766D56",
"]#	c #867D64",
"^#	c #595446",
"/#	c #726A55",
"(#	c #817B66",
"_#	c #8F876C",
":#	c #8E866B",
"<#	c #938A6F",
"[#	c #746C56",
"}#	c #514938",
"|#	c #7F765D",
"1#	c #8B8267",
"2#	c #827B63",
"3#	c #7A735D",
"4#	c #4D493C",
"5#	c #8E876F",
"6#	c #5C5645",
"7#	c #92886C",
"8#	c #90886D",
"9#	c #50493B",
"0#	c #91896C",
"a#	c #837C64",
"b#	c #91896F",
"c#	c #7F7761",
"d#	c #676151",
"e#	c #4E493D",
"f#	c #524837",
"g#	c #524A3B",
"h#	c #918B71",
"i#	c #847C65",
"j#	c #5D584A",
"k#	c #534C3C",
"l#	c #766E59",
"m#	c #8B856D",
"n#	c #78725C",
"o#	c #433E31",
"p#	c #5F5A49",
"q#	c #746D58",
"r#	c #8A8368",
"s#	c #8C866B",
"t#	c #837C63",
"u#	c #555044",
"v#	c #484438",
"w#	c #605846",
"x#	c #6E6450",
"y#	c #5C5646",
"z#	c #6B6351",
"A#	c #888067",
"B#	c #847C64",
"C#	c #5B5341",
"D#	c #544B3A",
"E#	c #6B6452",
"F#	c #8B856B",
"G#	c #696250",
"H#	c #443F34",
"I#	c #594F3E",
"J#	c #4A4334",
"K#	c #484437",
"L#	c #5D5848",
"M#	c #7C745D",
"N#	c #7B735C",
"O#	c #504C3E",
"P#	c #474134",
"Q#	c #716853",
"R#	c #8B8369",
"S#	c #827A62",
"T#	c #6C6451",
"U#	c #524C3E",
"V#	c #5C5748",
"W#	c #645E4D",
"X#	c #504B3F",
"Y#	c #5E5747",
"Z#	c #847C63",
"`#	c #867E65",
" $	c #665E4B",
".$	c #524E41",
"+$	c #5F5746",
"@$	c #7D745C",
"#$	c #877D63",
"$$	c #7D755D",
"%$	c #6B624E",
"&$	c #514A3B",
"*$	c #534E42",
"=$	c #5B5240",
"-$	c #877C62",
";$	c #837C66",
">$	c #5B5342",
",$	c #605947",
"'$	c #817860",
")$	c #5F5846",
"!$	c #595445",
"~$	c #514D3F",
"{$	c #474336",
"]$	c #888066",
"^$	c #79715B",
"/$	c #7A735C",
"($	c #564E3D",
"_$	c #716953",
":$	c #7E7863",
"<$	c #726B56",
"[$	c #5F5745",
"}$	c #867F67",
"|$	c #736B56",
"1$	c #524938",
"2$	c #6F6652",
"3$	c #7C755F",
"4$	c #7C765F",
"5$	c #706751",
"6$	c #67604D",
"7$	c #8B8469",
"8$	c #8B846A",
"9$	c #7A725B",
"0$	c #928A6F",
"a$	c #554C3D",
"b$	c #82775E",
"c$	c #8D8367",
"d$	c #69614F",
"e$	c #5C5749",
"f$	c #857D65",
"g$	c #5E594B",
"h$	c #4E483A",
"i$	c #81775E",
"j$	c #8C8469",
"k$	c #8C856A",
"l$	c #787059",
"m$	c #6E6048",
"n$	c #4F4839",
"o$	c #524D40",
"p$	c #68614F",
"q$	c #655F4F",
"r$	c #545044",
"s$	c #554B39",
"t$	c #4E4637",
"u$	c #534E40",
"v$	c #605A4B",
"w$	c #5F594A",
"x$	c #565245",
"y$	c #534E3F",
"z$	c #5D5749",
"A$	c #474132",
"B$	c #7B6E55",
"C$	c #6E614B",
"D$	c #524939",
"E$	c #4A4437",
"F$	c #6C624E",
"G$	c #82775F",
"H$	c #7B715A",
"I$	c #675C49",
"J$	c #4E493B",
"K$	c #66604F",
"L$	c #7D755E",
"M$	c #4D4639",
"N$	c #675C48",
"O$	c #71644E",
"P$	c #5E5341",
"Q$	c #4D483A",
"R$	c #7D765E",
"S$	c #716B57",
"T$	c #504738",
"U$	c #695B45",
"  . + @ # $ % & * = - ; > , ' ) ! ~ { ] ^ / ( _ : < [ } | 1 2 3 ",
"4 5 5 6 7 8 9 0 a b c d d ' e f g h i j . k , l m n o p q r s t ",
"u v v , ' w w x ^ . y z e A e B C D 7 E k F G H d G m I J K L M ",
"b B ' e w N - O P Q R S T A U - z 5 V W x c f H H X B Y Z `  ...",
"+.y @.#.- 5 $.%.&.*.=.-.;.>.,.'.).!.~.{.].^./.#.! ! (._.:.<.[.~.",
"}.|.1., 2.3.4.6 w C 5.7 6.7.8.9.0.a.b.c.[ d.V e.,.m f.P g.h.i.j.",
"k.l.m.n.o.p.+.> q.r.s.t.u.v.w.x.. y.5.'.f x 3 z.A.B.C.D.E.F.G.H.",
"I.J.K.L.M.b d N.O.O.A P.U Q.R.S.- T.U.N.V.V.W.(.X.Y.Z.`..  +.+++",
"z f ,.@+#+$+- T.q.A A N T %+&+*+A =+T.#.e q.W.z -+;+>+Y o o +   ",
"G , 9 ,+M.9 ,.! '+)+5.@.!+~+{+]+^+U #./+q./+(+_+:+%.<+[+}+u |+.+",
"W.- O 1+2+3+4+; w 5+6+7+8+%.9+0+a+z (+b+(+(+c+d+e+f+g+h+i+L f j+",
"'.e+k+l+m+n+g+$.o+I.d+p+q+r+s+t+u+!.v+w+x+- K.y+z+A+B+Q 3.C+D+E+",
"F+G+H+I+d ' m J+K+L+}.J ]+- C A 9 M+N+K 0 O+P+Q+R+S+T+U+a.V+W+3+",
"X+Y+Z+/+> `+' f  @.@+@y f A g f @@7 6 #@$@%@&@*@, =@'.-@b ;@>@,@",
"'@d )@!@~@t.)+h (.{@]@^@'+=+/@d (@~ C _@r+:@<@' [@N.T.'.%+}@|@1@",
"2@3@; #.'+! 4@^@5@&+..6@@., )+T.G 7@@.w+8@9@x e ! V.)+-@5 ; 0@a@",
"b@. b (+T 5+(+; c@q d@e@5 ^@e t.f 6@f@g@N+h@i@c 5@I.l G j@,.k@%@",
"l@F+m@ @b n@<@o@o@p@q@H+r@y s@t@y u@7.v@w@&+x@8 b y@d m 5@b o@z@",
"`.A@B@C@D@E@F@G@H@I@J@K@L@M@N@O@P@A.C.Q@R@S@T@U@V@!+>.<@W@X@Y@Z@",
") f `@p  #.#J +#<@d > ' @###M.M.Q t+]@$#%#8 t+&#*#u@i+K =#-#;#s+",
"d I.V.3@e@>#<@- 5.[@! T.T.x # ,#'#6@' ~ , d+M )#!#%.z.~#{#]#4 :+",
"#.-@z M ^#/#s@c N.G (#J.U @._#&@:#*+5.N.T.=@- - <#[#}#|#1#2#3#7 ",
"5@N !+|.4#;+I+; e A `+5#T y h+6#7#y y@)+e A ' z 8#@ 9#0#M 3#a#|+",
"b#c#d#e#f#g#7./ - 7@h#,.i#j#L@k#l#<@(.5.5@m#i (.n#A.o#p#q#r#s#t#",
"_ u#v#w#s+x#~#y#z#A#B#..P+g+C#D#M.E# @F#W.- M G#F+H#I#J#K#L#M#N#",
"O#P#Q#R#I.5@S#T#U#V#W#X#Y#Z#0@`# $Q d.c@`#3#o@.$+$@$#$$$%$&$4#*$",
"=$-$R#H ;$=@5.; ]@>$l@,$k f@*+l b '$)$ #!$~${$/#]$+.6 m i+^$/$($",
"_$R#; l :$'.I.-@3@<$[$`#~ N.H I.H l }$|$f#1$2$4 3$|+5 4$4 8 t#5$",
"6$7$8$6@H G @@}$k z.9$0$j@G H 5.d G x @ a$b$c$+.:+6 |+@@|+a#Y+d$",
"q+d@S.I+w -@k @ e$g+##f$-+*+*+f >.8 |.g$h$i$j${ |+m |+m k k$l$0+",
"m$n$o$p$# a#q$r${+s$t$u$v$7 (.!+n w$x$=.9+y$W#`#k@m a#}+q#z$ .A$",
"B$C$D$| R.4..$E$F$G$H$I$J$V K$L$K$r$M$N$O$P$Q$8@T#R$t S$A.=#T$U$"};
