/* XPM */
static char * ChatGPT Image May 31, 2025, 02_38_09 PM copy_xpm[] = {
"32 32 216 2",
"  	c None",
". 	c #504526",
"+ 	c #504626",
"@ 	c #514625",
"# 	c #988119",
"$ 	c #665723",
"% 	c #524425",
"& 	c #BB982C",
"* 	c #FCC45D",
"= 	c #FDC157",
"- 	c #CAA039",
"; 	c #504528",
"> 	c #534426",
", 	c #BB9F38",
"' 	c #FFDE79",
") 	c #FED46E",
"! 	c #FDC158",
"~ 	c #504628",
"{ 	c #534526",
"] 	c #FFDE7A",
"^ 	c #FFDF7A",
"/ 	c #FED46F",
"( 	c #846F1F",
"_ 	c #554A28",
": 	c #957D29",
"< 	c #F4D15F",
"[ 	c #FFDF79",
"} 	c #AE9118",
"| 	c #544927",
"1 	c #715D24",
"2 	c #D0B12E",
"3 	c #F9D769",
"4 	c #B6981A",
"5 	c #554A27",
"6 	c #7A661F",
"7 	c #C6A825",
"8 	c #F9D870",
"9 	c #BB9D1A",
"0 	c #6D5B24",
"a 	c #695825",
"b 	c #8B741D",
"c 	c #E3C858",
"d 	c #CDB419",
"e 	c #BCA715",
"f 	c #BBA615",
"g 	c #A29320",
"h 	c #998C23",
"i 	c #736121",
"j 	c #B29C18",
"k 	c #D6C519",
"l 	c #D6C618",
"m 	c #D7C619",
"n 	c #D7C718",
"o 	c #AA9A1E",
"p 	c #826C1F",
"q 	c #554424",
"r 	c #534223",
"s 	c #524224",
"t 	c #564523",
"u 	c #554624",
"v 	c #9B8217",
"w 	c #D7C719",
"x 	c #B4A31D",
"y 	c #827322",
"z 	c #D6C51C",
"A 	c #AB9B1D",
"B 	c #4E4929",
"C 	c #7C6B21",
"D 	c #9E8615",
"E 	c #9C8415",
"F 	c #9C8316",
"G 	c #87721E",
"H 	c #87711C",
"I 	c #C9B817",
"J 	c #B7A722",
"K 	c #766824",
"L 	c #D4C31C",
"M 	c #D6C61A",
"N 	c #A1941F",
"O 	c #675826",
"P 	c #786B26",
"Q 	c #B8A216",
"R 	c #D7C618",
"S 	c #D0BE17",
"T 	c #9E8A1C",
"U 	c #96811D",
"V 	c #CEBD17",
"W 	c #D7C819",
"X 	c #D6C718",
"Y 	c #D3C218",
"Z 	c #C9B918",
"` 	c #756826",
" .	c #766222",
"..	c #A89418",
"+.	c #D2C117",
"@.	c #C6B317",
"#.	c #C4AF16",
"$.	c #D6C518",
"%.	c #CCBA17",
"&.	c #907E1F",
"*.	c #564826",
"=.	c #88731E",
"-.	c #C8B616",
";.	c #D8C819",
">.	c #D7C818",
",.	c #C8B617",
"'.	c #C2AE16",
").	c #D4C218",
"!.	c #C2AC16",
"~.	c #8D7B1F",
"{.	c #574726",
"].	c #A4951F",
"^.	c #D4C317",
"/.	c #D8C919",
"(.	c #C2AD15",
"_.	c #B29913",
":.	c #B19914",
"<.	c #A69018",
"[.	c #6F5D24",
"}.	c #645124",
"|.	c #766221",
"1.	c #C0AD16",
"2.	c #D4C318",
"3.	c #CEBB17",
"4.	c #C7B619",
"5.	c #C4B41B",
"6.	c #D8C81A",
"7.	c #D6C617",
"8.	c #B39C15",
"9.	c #574224",
"0.	c #746221",
"a.	c #BEAB14",
"b.	c #D1C017",
"c.	c #BCA716",
"d.	c #AA9920",
"e.	c #9B8E23",
"f.	c #B9A819",
"g.	c #B29B15",
"h.	c #564325",
"i.	c #B39C13",
"j.	c #CCBA15",
"k.	c #AA9B22",
"l.	c #B9A91B",
"m.	c #C7B416",
"n.	c #927E1D",
"o.	c #4B4D2A",
"p.	c #5D4E24",
"q.	c #8C761A",
"r.	c #C5B215",
"s.	c #C5B51E",
"t.	c #8B7A20",
"u.	c #CDBA18",
"v.	c #D6C619",
"w.	c #B8A316",
"x.	c #675725",
"y.	c #534424",
"z.	c #D5E6BE",
"A.	c #BECAA4",
"B.	c #7E6A1D",
"C.	c #AC9412",
"D.	c #CFBD17",
"E.	c #C3B31D",
"F.	c #605024",
"G.	c #9C871A",
"H.	c #8B7821",
"I.	c #E6F8C9",
"J.	c #E6F8C1",
"K.	c #BEC37F",
"L.	c #8D7719",
"M.	c #C6B216",
"N.	c #CEBB18",
"O.	c #8F791C",
"P.	c #836E1F",
"Q.	c #A38913",
"R.	c #AC9E24",
"S.	c #514526",
"T.	c #B8C07F",
"U.	c #E4F2B2",
"V.	c #BFC37E",
"W.	c #8B7519",
"X.	c #A58B12",
"Y.	c #C8B517",
"Z.	c #CCB917",
"`.	c #AC9413",
" +	c #998C22",
".+	c #998C21",
"++	c #776923",
"@+	c #87711D",
"#+	c #BEAF21",
"$+	c #928022",
"%+	c #6E5D22",
"&+	c #9DA164",
"*+	c #8B8956",
"=+	c #6F5E21",
"-+	c #9D8514",
";+	c #B09915",
">+	c #CCBB16",
",+	c #AF9D17",
"'+	c #625323",
")+	c #8A7620",
"!+	c #CDB718",
"~+	c #D2BF18",
"{+	c #9E891C",
"]+	c #564426",
"^+	c #544926",
"/+	c #685822",
"(+	c #6D5D22",
"_+	c #796D21",
":+	c #7A6E21",
"<+	c #7B6D21",
"[+	c #716220",
"}+	c #736224",
"|+	c #7A6E22",
"1+	c #796C21",
"2+	c #6E5E21",
"3+	c #574526",
"                                                                ",
"                                                                ",
"                                                                ",
"                          . + .                                 ",
"                        @ # # # $                               ",
"                        % & * = - ;                             ",
"                        > , ' ) ! ~                             ",
"                        { , ] ^ / ( _                           ",
"                          : < [ ^ } |                           ",
"                          1 2 3 ' 4 5                           ",
"                            6 7 8 9 0 a                         ",
"                              b c d e f g h                     ",
"                              i j k l m l n o p                 ",
"                      q r s t u v k w x y z l A                 ",
"                  B C D E F G H I l m J K L w M N               ",
"              O P Q R n w S T U V W X w n l l Y Z `             ",
"             ...+.R l w n w m @.#.$.w w w X l %.&.*.            ",
"            =.-.l w ;.W >.w w w ,.'.w m m l ).!.~.{.            ",
"            ].^.n n W n n ;./.w w S X (._.:.<.[.}.              ",
"          |.1.l X 2.3.4.5.;.6.7./.W l w n 8.9.                  ",
"          0.a.>.n b.c.d.e.f.n l n l n w w g.h.                  ",
"          0.i.j.w n n n w k.l.n X n w l m.n.                    ",
"        o.p.q.r.m X w w w s.t.u.l w ;.v.w.x.                    ",
"      y.z.A.B.C.D.X w v.w E.F.G.S l W @.H.                      ",
"      % I.J.K.L.M.m w n N.O.*.P.Q.k l R.S.                      ",
"        T.U.V.W.X.Y.l Z.`. +.+++@+m.l #+$+%+                    ",
"          &+*+=+-+;+v.>+r.m n ,+'+)+!+m ~+{+]+                  ",
"              ^+/+(+_+:+_+<+:+[+    }+|+1+2+3+                  ",
"                                                                ",
"                                                                ",
"                                                                ",
"                                                                "};
