/* XPM */
static char * ChatGPT Image May 31, 2025, 01_23_09 PM_xpm[] = {
"32 32 301 2",
"  	c #73703E",
". 	c #74703E",
"+ 	c #736F3F",
"@ 	c #74713E",
"# 	c #74703F",
"$ 	c #74713F",
"% 	c #736F3E",
"& 	c #767340",
"* 	c #726E3F",
"= 	c #777341",
"- 	c #75713F",
"; 	c #73703F",
"> 	c #736E3F",
", 	c #757240",
"' 	c #726E40",
") 	c #73713F",
"! 	c #726D40",
"~ 	c #747140",
"{ 	c #767341",
"] 	c #767240",
"^ 	c #726D3D",
"/ 	c #69542A",
"( 	c #68471E",
"_ 	c #664B24",
": 	c #726D3C",
"< 	c #736F3D",
"[ 	c #6B5B30",
"} 	c #67461E",
"| 	c #684D25",
"1 	c #716C3C",
"2 	c #6D6134",
"3 	c #66441D",
"4 	c #65431D",
"5 	c #706A3A",
"6 	c #6D572C",
"7 	c #845924",
"8 	c #93662A",
"9 	c #815622",
"0 	c #69552B",
"a 	c #6A5A2F",
"b 	c #7B5221",
"c 	c #93672A",
"d 	c #8B6027",
"e 	c #6C5228",
"f 	c #6B6235",
"g 	c #754D1F",
"h 	c #916429",
"i 	c #8C5F27",
"j 	c #6A4B22",
"k 	c #6E6638",
"l 	c #6E491E",
"m 	c #875C25",
"n 	c #7C5322",
"o 	c #895D25",
"p 	c #67441C",
"q 	c #6E6839",
"r 	c #5C3B19",
"s 	c #8A5D25",
"t 	c #885D26",
"u 	c #8A5E26",
"v 	c #785021",
"w 	c #675D33",
"x 	c #5A4522",
"y 	c #8F6228",
"z 	c #8A5D26",
"A 	c #8C6027",
"B 	c #774F20",
"C 	c #60522B",
"D 	c #74723F",
"E 	c #62411B",
"F 	c #734D20",
"G 	c #6E491F",
"H 	c #63411B",
"I 	c #6E6739",
"J 	c #543617",
"K 	c #7A5121",
"L 	c #764E20",
"M 	c #754E20",
"N 	c #6D481E",
"O 	c #665D33",
"P 	c #584422",
"Q 	c #805623",
"R 	c #784F20",
"S 	c #714B1E",
"T 	c #5E512B",
"U 	c #603F1A",
"V 	c #704B1F",
"W 	c #714B1F",
"X 	c #724C1F",
"Y 	c #63401B",
"Z 	c #695F34",
"` 	c #6F6738",
" .	c #4F3317",
"..	c #6D491F",
"+.	c #744D1F",
"@.	c #69451C",
"#.	c #62562E",
"$.	c #6F6839",
"%.	c #564120",
"&.	c #734C1F",
"*.	c #714A1E",
"=.	c #5F522B",
"-.	c #613F1A",
";.	c #744D20",
">.	c #623F1B",
",.	c #724B1F",
"'.	c #6D471D",
").	c #513417",
"!.	c #764D20",
"~.	c #70491E",
"{.	c #6C471D",
"].	c #543618",
"^.	c #7B5121",
"/.	c #75723F",
"(.	c #603E1A",
"_.	c #61401B",
":.	c #66421B",
"<.	c #6E481D",
"[.	c #69441C",
"}.	c #64411B",
"|.	c #744C1F",
"1.	c #6F481E",
"2.	c #764F20",
"3.	c #704A1E",
"4.	c #5E3D1A",
"5.	c #5A3919",
"6.	c #67421C",
"7.	c #583818",
"8.	c #795020",
"9.	c #774E20",
"0.	c #68441C",
"a.	c #533518",
"b.	c #5B3A18",
"c.	c #5D3B19",
"d.	c #4B3016",
"e.	c #734D1F",
"f.	c #574A27",
"g.	c #5A4F2A",
"h.	c #533618",
"i.	c #524423",
"j.	c #594F2A",
"k.	c #49351A",
"l.	c #69451D",
"m.	c #726D3F",
"n.	c #62401B",
"o.	c #704A1F",
"p.	c #67431C",
"q.	c #645C33",
"r.	c #504021",
"s.	c #6F4A1F",
"t.	c #6E4A1F",
"u.	c #6A471E",
"v.	c #5D3D1A",
"w.	c #6D6739",
"x.	c #523417",
"y.	c #655D32",
"z.	c #5E522B",
"A.	c #6B481F",
"B.	c #67451E",
"C.	c #583A19",
"D.	c #613E1A",
"E.	c #69461E",
"F.	c #5F3E1B",
"G.	c #543517",
"H.	c #603D1A",
"I.	c #613D1A",
"J.	c #5F3C19",
"K.	c #4A2F16",
"L.	c #61411C",
"M.	c #5B502B",
"N.	c #5A3B19",
"O.	c #66451D",
"P.	c #613F1B",
"Q.	c #734B1E",
"R.	c #503418",
"S.	c #68461E",
"T.	c #5D3C1A",
"U.	c #744B1F",
"V.	c #764D1F",
"W.	c #4E3217",
"X.	c #6B481E",
"Y.	c #5E3F1B",
"Z.	c #553618",
"`.	c #623F1A",
" +	c #5A3A19",
".+	c #4C3217",
"++	c #64431D",
"@+	c #6C481E",
"#+	c #593B1A",
"$+	c #5E3C19",
"%+	c #492F16",
"&+	c #69471E",
"*+	c #583B19",
"=+	c #73713E",
"-+	c #553819",
";+	c #65451D",
">+	c #543719",
",+	c #482F16",
"'+	c #4C3116",
")+	c #4C3117",
"!+	c #4A3016",
"~+	c #63421D",
"{+	c #68461D",
"]+	c #5B3B1A",
"^+	c #472E16",
"/+	c #462D15",
"(+	c #583B1A",
"_+	c #6F6F3C",
":+	c #533718",
"<+	c #6E4A1E",
"[+	c #63431D",
"}+	c #533719",
"|+	c #656336",
"1+	c #6C6D3C",
"2+	c #6D6E3C",
"3+	c #6B6C3B",
"4+	c #65431C",
"5+	c #5C3C1A",
"6+	c #5E5930",
"7+	c #6C6D3B",
"8+	c #4E3F20",
"9+	c #6B471E",
"0+	c #68451D",
"a+	c #573B1A",
"b+	c #574E29",
"c+	c #716F3D",
"d+	c #6A6C3A",
"e+	c #4C5D2D",
"f+	c #523718",
"g+	c #5D431D",
"h+	c #61421C",
"i+	c #59431C",
"j+	c #503518",
"k+	c #3C4D25",
"l+	c #41582A",
"m+	c #44592A",
"n+	c #3A5228",
"o+	c #63421C",
"p+	c #5A431C",
"q+	c #5D401B",
"r+	c #573919",
"s+	c #3F4722",
"t+	c #445A2A",
"u+	c #3E5529",
"v+	c #43361A",
"w+	c #62421C",
"x+	c #61451D",
"y+	c #61461E",
"z+	c #553919",
"A+	c #42411E",
"B+	c #576232",
"C+	c #706F3D",
"D+	c #6B6B3A",
"E+	c #4F5E2E",
"F+	c #404321",
"G+	c #414821",
"H+	c #45461F",
"I+	c #3A471C",
"J+	c #3E411F",
"K+	c #344C24",
"L+	c #3C5428",
"M+	c #3B5427",
"N+	c #3A5327",
"O+	c #464B23",
"P+	c #484721",
"Q+	c #3E4A1F",
"R+	c #40441C",
"S+	c #3E421C",
"T+	c #344923",
"U+	c #3C5528",
"V+	c #3D5527",
"W+	c #314C24",
"X+	c #444D24",
"Y+	c #474520",
"Z+	c #434A1F",
"`+	c #3B481C",
" @	c #3F4120",
".@	c #404E25",
"+@	c #4C5D2C",
"@@	c #5E6634",
"#@	c #726F3E",
"$@	c #726F3D",
"%@	c #52612E",
"&@	c #586430",
"*@	c #525F2D",
"=@	c #52602D",
"-@	c #576330",
";@	c #53622F",
">@	c #52622F",
",@	c #5A6431",
"'@	c #53602E",
")@	c #53612E",
"!@	c #50602E",
"~@	c #52632E",
"{@	c #50612E",
"]@	c #5C6632",
"^@	c #57622F",
"/@	c #51602E",
"(@	c #5A6531",
"_@	c #5E6733",
":@	c #6B6C3A",
"  . . + @ @ # + $ . .   . . . # + @ @ . . @ @ + . @ % @ . @ . . ",
"  . @ + $ $ $ $ $ @ . . . & . $ + @ + # . . $ + @ @ + . @ * @ @ ",
"@ @ @ @ $ $ = $ $ @ + + # - $ $ $ $ ; . # $ $ $ $ $ @ . @   @ @ ",
". + > @ $ $ $ $ # . $ # $ ; $ $ # $ $ ; # $ $ $ . # , & . @ @ . ",
". . . . ; $ $ $ ' ; ; ) $ # + + $ $ $ # - $ ! $ # + $ . . @   . ",
". . . # + $ ~ ~ ~ $ # + ; # # $ # + $ $ { $ $ $ $ + $ $ @ @ %   ",
"$ ]   # $ $ $ $ $ $ # + ; # $ # # + $ $ ; # $ $ $ # # $ +   @ @ ",
". $   # ^ / ( _ : $ ; ; $ < [ } | 1 $ $ # ; # 2 3 4 5 . # . # . ",
". . . $ 6 7 8 9 0 ^ + + # a b c d e 5 $ # + f g h i j k $ $ . @ ",
"# + . - l m n o p q $ $ . r s t u v w $ # $ x y z A B C $ $ ] # ",
"# # $ D E F G v H I # $ $ J K L M N O # $ $ P Q R v S T $ $ $ # ",
". # # D U V W X Y Z q q `  ...+.W @.#.$.$.$.%.K &.W *.=.# $ $ $ ",
". . + $ -.V L ;.Y >.,.X '.).l !.&.@.H ~.*.{.].^.X W *.=.# # ; ; ",
". $ + /.(.M W R _.:.g B <.].R L g [.}.|.g 1.).^.2.&.3.=.# # ; ; ",
"# $ $ $ 4.L X R U 5.6.r 7.].8.9.g 0.a.5.b.c.d.^.e.,.*.=.# $ $ $ ",
"# ; $ D 4.L &.L -.f.g.g.g.h.L ;.W 0.i.g.g.j.k.^.X W l.=.. m.$ # ",
"; + $ D 4.;.X ,.n.I     . ).W W o.p.q.; #   r.8.s.t.l.=.# @ $ @ ",
". @ $ /.4...W u.v.w.. . . x.X W G _.y.. . . r.L s.s.l.z.@ . @ . ",
"# . . /.v.A.W B.C.7.D.D.c.h.+...E.F.G.H.I.J.K.L G s.L.M.. . + + ",
"$ /.. /.N.u.W O.C.P.|.Q.[.R.G l S.v.T.U.V.<.W.+.X.o.Y.M.@ . . . ",
"$ - . /.N.u.W O.C.Z.`.`. +.+++@+S.#+x.r $+r %+s.&+,.*+M.@ * @ =+",
". .   /.-+;+W ++>+,+'+)+!+.+~+@+{+]+^+%+%+!+/+@+S.s.(+M.@ ; . . ",
"  . . _+:+++<+[+}+|+1+2+3+d.[+u.4+5+6+1+2+7+8+9+0+l a+b+c+  @ . ",
"@ . d+e+f+g+h+i+j+k+l+m+n+'+o+p+q+r+s+l+t+u+v+w+x+y+z+A+B+C+  . ",
"@ @ D+E+F+G+H+I+J+K+L+M+N+O+P+Q+R+S+T+U+V+W+X+Y+Z+`+ @.@+@@@#@% ",
". .   $@%@&@*@=@-@;@>@>@>@,@%@=@'@)@!@>@~@{@]@%@^@=@/@(@_@:@    ",
"$ @ > $ .   . =+=+. ; + ;   =+    @ + %     .           . $ $ @ ",
". . @ . . . + . # $ # $ $ # .     . $ $ .   # * # . . % ; # @ . ",
". . . . @   + . $ # ; # $ ; * # . + + # # . . + $ . . ; ; $ @ . ",
". % + - ] .   . @ m.. . @ . . .   . # # $ ] # # @ . . $ $ $ + % ",
". . . . .   @ . $ . .   + . . . @ $ # # . . $ # + @ * $ $ + @ @ ",
". . . . . . .   . . . . + . . . . $ $ $ # . # # + . $ $ . + . . "};
